<?xml version="1.0" ?><svg enable-background="new 0 0 64 64" id="Layer_1" version="1.1" viewBox="0 0 64 64" xml:space="preserve" xmlns="http://www.w3.org/2000/svg" xmlns:xlink="http://www.w3.org/1999/xlink"><g><g><polygon fill="#E5E5E5" points="64,48 32,64 32,32 64,16   "/><polygon fill="#FFFFFF" points="61,31 35,44 35,36 61,23   "/><polygon fill="#3399CC" points="60,30.5 36,42.5 36,36.5 60,24.5   "/><polygon opacity="0.15" points="60,27.5 36,39.5 36,36.5 60,24.5   "/><polygon opacity="0.15" points="60,25.5 36,37.5 36,36.5 60,24.5   "/><polygon opacity="0.15" points="60,30.5 36,36.5 60,24.5   "/><polygon opacity="0.39" points="64,48 32,64 32,32 64,16   "/></g><g><polygon fill="#E5E5E5" points="32,64 0,48 0,16 32,32   "/><polygon fill="#FFFFFF" points="29,44 3,31 3,23 29,36   "/><polygon fill="#3399CC" points="28,42.5 4,30.5 4,24.5 28,36.5   "/><polygon opacity="0.15" points="28,39.5 4,27.5 4,24.5 28,36.5   "/><polyline opacity="0.15" points="28,36.5 28,37.5 4,25.5 4,24.5   "/><polygon fill="#FFFFFF" opacity="0.15" points="28,42.5 4,24.5 4,30.5   "/><polygon fill="#FFFFFF" points="11,53.5 3,49.5 3,35.5 11,39.5   "/><polygon fill="#656565" points="4,37 10,40 10,53 4,50   "/><polygon fill="#FFFFFF" opacity="0.25" points="10,52 4,49 4,48 10,51   "/><polygon fill="#FFFFFF" opacity="0.25" points="10,50 4,47 4,46 10,49   "/><polygon fill="#FFFFFF" opacity="0.25" points="10,48 4,45 4,44 10,47   "/><polygon fill="#FFFFFF" opacity="0.25" points="10,46 4,43 4,42 10,45   "/><polygon fill="#FFFFFF" opacity="0.25" points="10,44 4,41 4,40 10,43   "/><polygon fill="#FFFFFF" opacity="0.25" points="10,42 4,39 4,38 10,41   "/><polygon opacity="6.000000e-002" points="32,64 0,48 0,16 32,32   "/></g><polygon fill="#2D3134" points="32,32 64,16 32,0 0,16  "/></g></svg>